<svg width="24" height="24" viewBox="0 0 24 24" fill="none" xmlns="http://www.w3.org/2000/svg">
<rect width="24" height="24" fill="white"/>
<rect x="2.5" y="6.5" width="19" height="11" rx="5.5" fill="#D9D9D9" fill-opacity="0.03" stroke="black"/>
<path d="M5.52841 14V9.63636H6.05682V11.5795H8.38352V9.63636H8.91193V14H8.38352V12.0483H6.05682V14H5.52841ZM11.2312 14.0682C10.9357 14.0682 10.6765 13.9979 10.4535 13.8572C10.2319 13.7166 10.0586 13.5199 9.93359 13.267C9.81001 13.0142 9.74822 12.7187 9.74822 12.3807C9.74822 12.0398 9.81001 11.7422 9.93359 11.4879C10.0586 11.2337 10.2319 11.0362 10.4535 10.8956C10.6765 10.755 10.9357 10.6847 11.2312 10.6847C11.5266 10.6847 11.7852 10.755 12.0067 10.8956C12.2298 11.0362 12.4031 11.2337 12.5266 11.4879C12.6516 11.7422 12.7141 12.0398 12.7141 12.3807C12.7141 12.7187 12.6516 13.0142 12.5266 13.267C12.4031 13.5199 12.2298 13.7166 12.0067 13.8572C11.7852 13.9979 11.5266 14.0682 11.2312 14.0682ZM11.2312 13.6165C11.4556 13.6165 11.6403 13.5589 11.7852 13.4439C11.93 13.3288 12.0373 13.1776 12.1069 12.9901C12.1765 12.8026 12.2113 12.5994 12.2113 12.3807C12.2113 12.1619 12.1765 11.9581 12.1069 11.7692C12.0373 11.5803 11.93 11.4276 11.7852 11.3111C11.6403 11.1946 11.4556 11.1364 11.2312 11.1364C11.0067 11.1364 10.8221 11.1946 10.6772 11.3111C10.5323 11.4276 10.4251 11.5803 10.3555 11.7692C10.2859 11.9581 10.2511 12.1619 10.2511 12.3807C10.2511 12.5994 10.2859 12.8026 10.3555 12.9901C10.4251 13.1776 10.5323 13.3288 10.6772 13.4439C10.8221 13.5589 11.0067 13.6165 11.2312 13.6165ZM14.8113 14.0682C14.5158 14.0682 14.2566 13.9979 14.0336 13.8572C13.812 13.7166 13.6387 13.5199 13.5137 13.267C13.3901 13.0142 13.3283 12.7187 13.3283 12.3807C13.3283 12.0398 13.3901 11.7422 13.5137 11.4879C13.6387 11.2337 13.812 11.0362 14.0336 10.8956C14.2566 10.755 14.5158 10.6847 14.8113 10.6847C15.1067 10.6847 15.3652 10.755 15.5868 10.8956C15.8098 11.0362 15.9831 11.2337 16.1067 11.4879C16.2317 11.7422 16.2942 12.0398 16.2942 12.3807C16.2942 12.7187 16.2317 13.0142 16.1067 13.267C15.9831 13.5199 15.8098 13.7166 15.5868 13.8572C15.3652 13.9979 15.1067 14.0682 14.8113 14.0682ZM14.8113 13.6165C15.0357 13.6165 15.2203 13.5589 15.3652 13.4439C15.5101 13.3288 15.6174 13.1776 15.687 12.9901C15.7566 12.8026 15.7914 12.5994 15.7914 12.3807C15.7914 12.1619 15.7566 11.9581 15.687 11.7692C15.6174 11.5803 15.5101 11.4276 15.3652 11.3111C15.2203 11.1946 15.0357 11.1364 14.8113 11.1364C14.5868 11.1364 14.4022 11.1946 14.2573 11.3111C14.1124 11.4276 14.0051 11.5803 13.9355 11.7692C13.8659 11.9581 13.8311 12.1619 13.8311 12.3807C13.8311 12.5994 13.8659 12.8026 13.9355 12.9901C14.0051 13.1776 14.1124 13.3288 14.2573 13.4439C14.4022 13.5589 14.5868 13.6165 14.8113 13.6165ZM17.5305 12.8068L17.522 12.1847H17.6243L19.0561 10.7273H19.6783L18.1527 12.2699H18.1101L17.5305 12.8068ZM17.0618 14V9.63636H17.5646V14H17.0618ZM19.1413 14L17.8629 12.3807L18.2209 12.0312L19.7805 14H19.1413Z" fill="black"/>
</svg>
